<svg width="28" height="28" viewBox="0 0 28 28" fill="none" xmlns="http://www.w3.org/2000/svg">
<path d="M21.137 28C19.6626 28 18.11 27.6484 16.5051 26.9712C14.9394 26.307 13.3607 25.3953 11.8211 24.2884C10.2945 23.1684 8.82013 21.9181 7.42405 20.5507C6.04101 19.1572 4.78844 17.6856 3.6794 16.1749C2.55732 14.6121 1.65704 13.0493 1.01771 11.5386C0.339236 9.92372 0 8.36093 0 6.8893C0 5.87349 0.182665 4.90977 0.534949 4.01116C0.90028 3.08651 1.48742 2.22698 2.28332 1.48465C3.28798 0.494884 4.43616 0 5.66263 0C6.17148 0 6.69338 0.117209 7.137 0.325581C7.64585 0.56 8.07642 0.911628 8.38956 1.38047L11.4166 5.63907C11.6906 6.01674 11.8993 6.3814 12.0429 6.74605C12.2125 7.13674 12.3038 7.52744 12.3038 7.90512C12.3038 8.4 12.1603 8.88186 11.8863 9.33768C11.6906 9.6893 11.3905 10.067 11.0121 10.4447L10.1249 11.3693C10.1379 11.4084 10.151 11.4344 10.164 11.4605C10.3206 11.734 10.6337 12.2028 11.2339 12.906C11.8733 13.6353 12.4734 14.2995 13.0736 14.9116C13.8434 15.667 14.4828 16.266 15.0829 16.7609C15.8267 17.386 16.3094 17.6986 16.5965 17.8419L16.5704 17.907L17.5228 16.9693C17.9273 16.5656 18.3187 16.266 18.6971 16.0707C19.4147 15.6279 20.3281 15.5498 21.2414 15.9274C21.5806 16.0707 21.9459 16.266 22.3374 16.5395L26.6692 19.613C27.1519 19.9386 27.5042 20.3553 27.713 20.8502C27.9087 21.3451 28 21.8009 28 22.2567C28 22.8819 27.8565 23.507 27.5825 24.093C27.3085 24.6791 26.9692 25.187 26.5387 25.6558C25.795 26.4763 24.986 27.0623 24.0466 27.44C23.1463 27.8047 22.1678 28 21.137 28ZM5.66263 1.95349C4.94501 1.95349 4.27959 2.26605 3.64026 2.89116C3.04007 3.45116 2.62255 4.06326 2.3616 4.72744C2.0876 5.40465 1.95713 6.12093 1.95713 6.8893C1.95713 8.10046 2.24418 9.41581 2.81827 10.7702C3.40541 12.1507 4.2274 13.5833 5.2712 15.0158C6.31501 16.4484 7.50233 17.8419 8.80708 19.1572C10.1118 20.4465 11.521 21.6447 12.9692 22.6995C14.3784 23.7284 15.8267 24.5619 17.2619 25.1609C19.493 26.1116 21.5806 26.333 23.3029 25.6167C23.9683 25.3433 24.5555 24.9265 25.0904 24.3274C25.3905 24.0019 25.6254 23.6502 25.8211 23.2335C25.9776 22.9079 26.0559 22.5693 26.0559 22.2307C26.0559 22.0223 26.0168 21.814 25.9124 21.5795C25.8733 21.5014 25.795 21.3581 25.5471 21.1888L21.2153 18.1153C20.9543 17.933 20.7195 17.8028 20.4977 17.7116C20.2106 17.5944 20.0932 17.4772 19.6496 17.7507C19.3886 17.8809 19.1538 18.0763 18.8928 18.3367L17.9012 19.3135C17.3924 19.8084 16.6095 19.9256 16.0093 19.7042L15.657 19.5479C15.1221 19.2614 14.4958 18.8186 13.8043 18.2326C13.178 17.6986 12.4995 17.0735 11.6775 16.266C11.0382 15.6149 10.3989 14.9247 9.73346 14.1563C9.12022 13.44 8.67661 12.8279 8.40261 12.32L8.24604 11.9293C8.16775 11.6298 8.14166 11.4605 8.14166 11.2781C8.14166 10.8093 8.31128 10.3926 8.63747 10.067L9.61603 9.05116C9.87698 8.7907 10.0727 8.54326 10.2032 8.32186C10.3075 8.15256 10.3467 8.0093 10.3467 7.87907C10.3467 7.77488 10.3076 7.6186 10.2423 7.46233C10.151 7.25395 10.0075 7.01953 9.82479 6.77209L6.79776 2.50047C6.66729 2.31814 6.51072 2.18791 6.315 2.09674C6.10624 2.00558 5.88444 1.95349 5.66263 1.95349ZM16.5704 17.92L16.3616 18.8056L16.7139 17.894C16.6487 17.8809 16.5965 17.894 16.5704 17.92Z" fill="#FCFCFC"/>
</svg>
