<svg width="37" height="36" viewBox="0 0 37 36" fill="none" xmlns="http://www.w3.org/2000/svg">
<path d="M33.5556 0H2.64752C1.23127 0 0.0805664 1.16518 0.0805664 2.59554V33.4045C0.0805664 34.8348 1.23127 36 2.64752 36H33.5556C34.9718 36 36.1306 34.8348 36.1306 33.4045V2.59554C36.1306 1.16518 34.9718 0 33.5556 0ZM10.976 30.8571H5.63292V13.6768H10.9841V30.8571H10.976ZM8.30448 11.3304C6.59049 11.3304 5.20643 9.94018 5.20643 8.23661C5.20643 6.53304 6.59049 5.14286 8.30448 5.14286C10.0104 5.14286 11.4025 6.53304 11.4025 8.23661C11.4025 9.94821 10.0185 11.3304 8.30448 11.3304ZM31.0047 30.8571H25.6616V22.5C25.6616 20.5071 25.6214 17.9438 22.8854 17.9438C20.1012 17.9438 19.6747 20.1134 19.6747 22.3554V30.8571H14.3316V13.6768H19.4575V16.0232H19.5299C20.2461 14.6732 21.9922 13.2509 24.5914 13.2509C29.9989 13.2509 31.0047 16.8107 31.0047 21.4393V30.8571Z" fill="white"/>
</svg>
