<svg width="185" height="136" viewBox="0 0 185 136" fill="none" xmlns="http://www.w3.org/2000/svg">
<path d="M115.625 125.135C115.625 131.412 120.749 136.596 126.944 135.586C159.766 130.235 185 102.03 185 68.3126L185 19.1253C185 8.63187 176.493 0.125275 166 0.125275H134.625C124.132 0.125275 115.625 8.63186 115.625 19.1253V49.3126C115.625 59.806 124.132 68.3126 134.625 68.3126H142.875C153.368 68.3126 162.245 77.1872 157.95 86.7617C152.26 99.4479 140.857 109.035 126.886 112.431C120.787 113.914 115.625 118.859 115.625 125.135ZM0 125.135C0 131.412 5.12427 136.596 11.319 135.586C44.1414 130.235 69.375 102.03 69.375 68.3126V19.1253C69.375 8.63187 60.8684 0.125275 50.375 0.125275H19C8.50659 0.125275 0 8.63186 0 19.1253L0 49.3126C0 59.806 8.50659 68.3126 19 68.3126H27.25C37.7434 68.3126 46.6195 77.1872 42.3252 86.7617C36.6352 99.4479 25.2319 109.035 11.2605 112.431C5.16168 113.914 0 118.859 0 125.135Z" fill="#C6C9FF"/>
</svg>
