<svg width="16" height="16" viewBox="0 0 24 25" fill="none" xmlns="http://www.w3.org/2000/svg">
<path d="M10.4058 0.529731C4.66774 0.529731 0 5.19747 0 10.9355C0 16.6736 4.66774 21.3413 10.4058 21.3413C12.1599 21.3413 13.8843 20.9251 15.3411 20.1224C15.4578 20.2628 15.5872 20.3922 15.7276 20.5089L18.7007 23.4819C18.9752 23.7908 19.31 24.0404 19.6844 24.2152C20.0589 24.3901 20.4651 24.4865 20.8782 24.4987C21.2913 24.5109 21.7025 24.4385 22.0866 24.2859C22.4707 24.1334 22.8196 23.904 23.1118 23.6118C23.404 23.3196 23.6334 22.9707 23.7859 22.5866C23.9385 22.2025 24.0108 21.7913 23.9987 21.3782C23.9865 20.9651 23.8901 20.5589 23.7152 20.1844C23.5404 19.81 23.2908 19.4752 22.9819 19.2007L20.0089 16.2276C19.864 16.0827 19.7046 15.9532 19.5332 15.8411C20.3359 14.3843 20.8413 12.6896 20.8413 10.9058C20.8413 5.16774 16.1736 0.5 10.4355 0.5L10.4058 0.529731ZM10.4058 3.50281C14.5384 3.50281 17.8385 6.80294 17.8385 10.9355C17.8385 12.8978 17.125 14.7113 15.8763 16.0492C15.8465 16.079 15.8168 16.1087 15.7871 16.1384C15.6466 16.2551 15.5173 16.3845 15.4006 16.5249C14.0924 17.7142 12.3086 18.398 10.3761 18.398C6.24348 18.398 2.94335 15.0978 2.94335 10.9653C2.94335 6.83267 6.24348 3.53255 10.3761 3.53255L10.4058 3.50281Z" fill="#837D7D"/>
</svg>
